<svg xmlns="http://www.w3.org/2000/svg" xmlns:xlink="http://www.w3.org/1999/xlink" width="1004pt" height="389pt" viewBox="0 0 1004.32 388.85"><g id="graph0" class="graph" transform="scale(1 1) rotate(0) translate(4 384.853)"><title>merged</title><polygon fill="#fff" stroke="none" points="-4 4 -4 -384.853 1000.32 -384.853 1000.32 4 -4 4"/><g id="node1" class="node"><title>data</title><ellipse cx="539.66" cy="-18" fill="none" stroke="#000" rx="70.425" ry="18"/><text x="539.66" y="-14.514" font-family="Inconsolata" font-size="14" text-anchor="middle">Training Data</text></g><g id="node2" class="node"><title>vect1</title><ellipse cx="539.66" cy="-99.475" fill="none" stroke="#000" rx="110.118" ry="27.451"/><text x="539.66" y="-103.704" font-family="Inconsolata" font-size="14" text-anchor="middle">CountVectorizer</text><text x="539.66" y="-88.275" font-family="Inconsolata" font-size="14" text-anchor="middle">- ngram_range=(1, 1)</text></g><g id="edge1" class="edge"><title>data-&gt;vect1</title><path fill="none" stroke="#000" d="M539.66,-36.245C539.66,-43.7264 539.66,-52.7938 539.66,-61.6655"/><polygon fill="#000" stroke="#000" points="536.161 -61.883 539.66 -71.883 543.161 -61.883 536.161 -61.883"/></g><g id="node3" class="node"><title>tfidf_1_1</title><ellipse cx="328.66" cy="-190.426" fill="none" stroke="#000" rx="90.519" ry="27.451"/><text x="328.66" y="-194.654" font-family="Inconsolata" font-size="14" text-anchor="middle">TfidfTransformer</text><text x="328.66" y="-179.226" font-family="Inconsolata" font-size="14" text-anchor="middle">- norm=&apos;l1&apos;</text></g><g id="edge2" class="edge"><title>vect1-&gt;tfidf_1_1</title><path fill="none" stroke="#000" d="M485.048,-123.498C455.85,-135.807 419.814,-150.999 389.695,-163.696"/><polygon fill="#000" stroke="#000" points="387.995 -160.614 380.14 -167.724 390.715 -167.065 387.995 -160.614"/></g><g id="node4" class="node"><title>tfidf_1_2</title><ellipse cx="666.66" cy="-190.426" fill="none" stroke="#000" rx="90.519" ry="27.451"/><text x="666.66" y="-194.654" font-family="Inconsolata" font-size="14" text-anchor="middle">TfidfTransformer</text><text x="666.66" y="-179.226" font-family="Inconsolata" font-size="14" text-anchor="middle">- norm=&apos;l2&apos;</text></g><g id="edge9" class="edge"><title>vect1-&gt;tfidf_1_2</title><path fill="none" stroke="#000" d="M575.375,-125.49C590.232,-135.896 607.616,-148.071 623.204,-158.99"/><polygon fill="#000" stroke="#000" points="621.454 -162.037 631.652 -164.907 625.47 -156.303 621.454 -162.037"/></g><g id="node5" class="node"><title>sgd_1_1_1</title><ellipse cx="75.66" cy="-281.377" fill="none" stroke="#000" rx="75.821" ry="27.451"/><text x="75.66" y="-285.605" font-family="Inconsolata" font-size="14" text-anchor="middle">SGDClassifier</text><text x="75.66" y="-270.177" font-family="Inconsolata" font-size="14" text-anchor="middle">- alpha=1e-3</text></g><g id="edge3" class="edge"><title>tfidf_1_1-&gt;sgd_1_1_1</title><path fill="none" stroke="#000" d="M270.934,-211.722C231.374,-225.631 178.922,-244.072 138.342,-258.339"/><polygon fill="#000" stroke="#000" points="137.096 -255.067 128.823 -261.686 139.418 -261.671 137.096 -255.067"/></g><g id="node6" class="node"><title>sgd_1_1_2</title><ellipse cx="244.66" cy="-281.377" fill="none" stroke="#000" rx="75.821" ry="27.451"/><text x="244.66" y="-285.605" font-family="Inconsolata" font-size="14" text-anchor="middle">SGDClassifier</text><text x="244.66" y="-270.177" font-family="Inconsolata" font-size="14" text-anchor="middle">- alpha=1e-4</text></g><g id="edge5" class="edge"><title>tfidf_1_1-&gt;sgd_1_1_2</title><path fill="none" stroke="#000" d="M304.364,-217.155C295.406,-226.64 285.133,-237.519 275.663,-247.548"/><polygon fill="#000" stroke="#000" points="272.933 -245.34 268.612 -255.014 278.023 -250.146 272.933 -245.34"/></g><g id="node7" class="node"><title>sgd_1_1_3</title><ellipse cx="413.66" cy="-281.377" fill="none" stroke="#000" rx="75.821" ry="27.451"/><text x="413.66" y="-285.605" font-family="Inconsolata" font-size="14" text-anchor="middle">SGDClassifier</text><text x="413.66" y="-270.177" font-family="Inconsolata" font-size="14" text-anchor="middle">- alpha=1e-5</text></g><g id="edge7" class="edge"><title>tfidf_1_1-&gt;sgd_1_1_3</title><path fill="none" stroke="#000" d="M353.246,-217.155C362.311,-226.64 372.706,-237.519 382.289,-247.548"/><polygon fill="#000" stroke="#000" points="379.985 -250.202 389.424 -255.014 385.045 -245.366 379.985 -250.202"/></g><g id="node8" class="node"><title>sgd_1_2_1</title><ellipse cx="582.66" cy="-281.377" fill="none" stroke="#000" rx="75.821" ry="27.451"/><text x="582.66" y="-285.605" font-family="Inconsolata" font-size="14" text-anchor="middle">SGDClassifier</text><text x="582.66" y="-270.177" font-family="Inconsolata" font-size="14" text-anchor="middle">- alpha=1e-3</text></g><g id="edge10" class="edge"><title>tfidf_1_2-&gt;sgd_1_2_1</title><path fill="none" stroke="#000" d="M642.364,-217.155C633.406,-226.64 623.133,-237.519 613.663,-247.548"/><polygon fill="#000" stroke="#000" points="610.933 -245.34 606.612 -255.014 616.023 -250.146 610.933 -245.34"/></g><g id="node9" class="node"><title>sgd_1_2_2</title><ellipse cx="751.66" cy="-281.377" fill="none" stroke="#000" rx="75.821" ry="27.451"/><text x="751.66" y="-285.605" font-family="Inconsolata" font-size="14" text-anchor="middle">SGDClassifier</text><text x="751.66" y="-270.177" font-family="Inconsolata" font-size="14" text-anchor="middle">- alpha=1e-4</text></g><g id="edge12" class="edge"><title>tfidf_1_2-&gt;sgd_1_2_2</title><path fill="none" stroke="#000" d="M691.246,-217.155C700.311,-226.64 710.706,-237.519 720.289,-247.548"/><polygon fill="#000" stroke="#000" points="717.985 -250.202 727.424 -255.014 723.045 -245.366 717.985 -250.202"/></g><g id="node10" class="node"><title>sgd_1_2_3</title><ellipse cx="920.66" cy="-281.377" fill="none" stroke="#000" rx="75.821" ry="27.451"/><text x="920.66" y="-285.605" font-family="Inconsolata" font-size="14" text-anchor="middle">SGDClassifier</text><text x="920.66" y="-270.177" font-family="Inconsolata" font-size="14" text-anchor="middle">- alpha=1e-5</text></g><g id="edge14" class="edge"><title>tfidf_1_2-&gt;sgd_1_2_3</title><path fill="none" stroke="#000" d="M724.615,-211.722C764.331,-225.631 816.991,-244.072 857.732,-258.339"/><polygon fill="#000" stroke="#000" points="856.692 -261.684 867.287 -261.686 859.006 -255.077 856.692 -261.684"/></g><g id="node11" class="node"><title>best</title><ellipse cx="497.66" cy="-362.853" fill="none" stroke="#000" rx="111.9" ry="18"/><text x="497.66" y="-359.367" font-family="Inconsolata" font-size="14" text-anchor="middle">Choose Best Parameters</text></g><g id="edge4" class="edge"><title>sgd_1_1_1-&gt;best</title><path fill="none" stroke="#000" d="M129.553,-300.672C139.493,-303.671 149.835,-306.548 159.66,-308.853 239.416,-327.563 331.34,-341.497 399.172,-350.369"/><polygon fill="#000" stroke="#000" points="399.056 -353.883 409.423 -351.696 399.955 -346.941 399.056 -353.883"/></g><g id="edge6" class="edge"><title>sgd_1_1_2-&gt;best</title><path fill="none" stroke="#000" d="M300.685,-300.048C310.027,-302.99 319.617,-306.009 328.66,-308.853 365.346,-320.386 406.521,-333.3 439.044,-343.492"/><polygon fill="#000" stroke="#000" points="438.255 -346.913 448.844 -346.564 440.349 -340.234 438.255 -346.913"/></g><g id="edge8" class="edge"><title>sgd_1_1_3-&gt;best</title><path fill="none" stroke="#000" d="M440.239,-307.524C450.503,-317.236 462.196,-328.298 472.338,-337.895"/><polygon fill="#000" stroke="#000" points="470.074 -340.57 479.743 -344.901 474.885 -335.485 470.074 -340.57"/></g><g id="edge11" class="edge"><title>sgd_1_2_1-&gt;best</title><path fill="none" stroke="#000" d="M555.766,-307.524C545.379,-317.236 533.547,-328.298 523.284,-337.895"/><polygon fill="#000" stroke="#000" points="520.705 -335.514 515.791 -344.901 525.486 -340.627 520.705 -335.514"/></g><g id="edge13" class="edge"><title>sgd_1_2_2-&gt;best</title><path fill="none" stroke="#000" d="M695.64,-300.061C686.298,-303.002 676.707,-306.017 667.66,-308.853 630.768,-320.418 589.349,-333.332 556.632,-343.517"/><polygon fill="#000" stroke="#000" points="555.28 -340.272 546.772 -346.586 557.36 -346.956 555.28 -340.272"/></g><g id="edge15" class="edge"><title>sgd_1_2_3-&gt;best</title><path fill="none" stroke="#000" d="M866.768,-300.675C856.828,-303.675 846.486,-306.55 836.66,-308.853 756.67,-327.599 664.474,-341.53 596.441,-350.392"/><polygon fill="#000" stroke="#000" points="595.631 -346.968 586.16 -351.717 596.525 -353.91 595.631 -346.968"/></g></g></svg>