<svg xmlns="http://www.w3.org/2000/svg" xmlns:xlink="http://www.w3.org/1999/xlink" width="1424pt" height="389pt" viewBox="0 0 1423.62 388.85"><g id="graph0" class="graph" transform="scale(1 1) rotate(0) translate(4 384.853)"><title>unmerged</title><polygon fill="#fff" stroke="none" points="-4 4 -4 -384.853 1419.62 -384.853 1419.62 4 -4 4"/><g id="node1" class="node"><title>data</title><ellipse cx="707.309" cy="-18" fill="none" stroke="#000" rx="70.425" ry="18"/><text x="707.309" y="-14.514" font-family="Inconsolata" font-size="14" text-anchor="middle">Training Data</text></g><g id="node2" class="node"><title>vect1</title><ellipse cx="110.309" cy="-99.475" fill="none" stroke="#000" rx="110.118" ry="27.451"/><text x="110.309" y="-103.704" font-family="Inconsolata" font-size="14" text-anchor="middle">CountVectorizer</text><text x="110.309" y="-88.275" font-family="Inconsolata" font-size="14" text-anchor="middle">- ngram_range=(1, 1)</text></g><g id="edge1" class="edge"><title>data-&gt;vect1</title><path fill="none" stroke="#000" d="M641.03,-24.1191C548.625,-31.7659 376.018,-47.9016 230.309,-72 219.914,-73.7191 209.065,-75.7601 198.323,-77.9349"/><polygon fill="#000" stroke="#000" points="197.588 -74.513 188.504 -79.964 199.005 -81.368 197.588 -74.513"/></g><g id="node3" class="node"><title>vect2</title><ellipse cx="349.309" cy="-99.475" fill="none" stroke="#000" rx="110.118" ry="27.451"/><text x="349.309" y="-103.704" font-family="Inconsolata" font-size="14" text-anchor="middle">CountVectorizer</text><text x="349.309" y="-88.275" font-family="Inconsolata" font-size="14" text-anchor="middle">- ngram_range=(1, 1)</text></g><g id="edge5" class="edge"><title>data-&gt;vect2</title><path fill="none" stroke="#000" d="M656.016,-30.3869C599.719,-42.8847 508.257,-63.1892 439.835,-78.3787"/><polygon fill="#000" stroke="#000" points="438.918 -74.997 429.914 -80.581 440.435 -81.831 438.918 -74.997"/></g><g id="node4" class="node"><title>vect3</title><ellipse cx="588.309" cy="-99.475" fill="none" stroke="#000" rx="110.118" ry="27.451"/><text x="588.309" y="-103.704" font-family="Inconsolata" font-size="14" text-anchor="middle">CountVectorizer</text><text x="588.309" y="-88.275" font-family="Inconsolata" font-size="14" text-anchor="middle">- ngram_range=(1, 1)</text></g><g id="edge9" class="edge"><title>data-&gt;vect3</title><path fill="none" stroke="#000" d="M683.227,-35.083C669.232,-44.4302 651.125,-56.5227 634.485,-67.6364"/><polygon fill="#000" stroke="#000" points="632.318 -64.875 625.946 -73.339 636.205 -70.696 632.318 -64.875"/></g><g id="node5" class="node"><title>vect4</title><ellipse cx="827.309" cy="-99.475" fill="none" stroke="#000" rx="110.118" ry="27.451"/><text x="827.309" y="-103.704" font-family="Inconsolata" font-size="14" text-anchor="middle">CountVectorizer</text><text x="827.309" y="-88.275" font-family="Inconsolata" font-size="14" text-anchor="middle">- ngram_range=(1, 1)</text></g><g id="edge13" class="edge"><title>data-&gt;vect4</title><path fill="none" stroke="#000" d="M731.592,-35.083C745.706,-44.4302 763.964,-56.5227 780.745,-67.6364"/><polygon fill="#000" stroke="#000" points="779.085 -70.735 789.355 -73.339 782.951 -64.899 779.085 -70.735"/></g><g id="node6" class="node"><title>vect5</title><ellipse cx="1066.31" cy="-99.475" fill="none" stroke="#000" rx="110.118" ry="27.451"/><text x="1066.31" y="-103.704" font-family="Inconsolata" font-size="14" text-anchor="middle">CountVectorizer</text><text x="1066.31" y="-88.275" font-family="Inconsolata" font-size="14" text-anchor="middle">- ngram_range=(1, 1)</text></g><g id="edge17" class="edge"><title>data-&gt;vect5</title><path fill="none" stroke="#000" d="M758.745,-30.3869C815.291,-42.9051 907.217,-63.2557 975.866,-78.4533"/><polygon fill="#000" stroke="#000" points="975.299 -81.912 985.819 -80.657 976.812 -75.078 975.299 -81.912"/></g><g id="node7" class="node"><title>vect6</title><ellipse cx="1305.31" cy="-99.475" fill="none" stroke="#000" rx="110.118" ry="27.451"/><text x="1305.31" y="-103.704" font-family="Inconsolata" font-size="14" text-anchor="middle">CountVectorizer</text><text x="1305.31" y="-88.275" font-family="Inconsolata" font-size="14" text-anchor="middle">- ngram_range=(1, 1)</text></g><g id="edge21" class="edge"><title>data-&gt;vect6</title><path fill="none" stroke="#000" d="M773.726,-24.1097C866.326,-31.7456 1039.3,-47.8684 1185.31,-72 1195.7,-73.7179 1206.55,-75.7582 1217.3,-77.9326"/><polygon fill="#000" stroke="#000" points="1216.61 -81.365 1227.11 -79.962 1218.03 -74.51 1216.61 -81.365"/></g><g id="node8" class="node"><title>tfidf1</title><ellipse cx="150.309" cy="-190.426" fill="none" stroke="#000" rx="90.519" ry="27.451"/><text x="150.309" y="-194.654" font-family="Inconsolata" font-size="14" text-anchor="middle">TfidfTransformer</text><text x="150.309" y="-179.226" font-family="Inconsolata" font-size="14" text-anchor="middle">- norm=&apos;l1&apos;</text></g><g id="edge2" class="edge"><title>vect1-&gt;tfidf1</title><path fill="none" stroke="#000" d="M122.31,-127.164C126.062,-135.507 130.263,-144.849 134.247,-153.709"/><polygon fill="#000" stroke="#000" points="131.16 -155.379 138.454 -163.063 137.544 -152.508 131.16 -155.379"/></g><g id="node9" class="node"><title>tfidf2</title><ellipse cx="369.309" cy="-190.426" fill="none" stroke="#000" rx="90.519" ry="27.451"/><text x="369.309" y="-194.654" font-family="Inconsolata" font-size="14" text-anchor="middle">TfidfTransformer</text><text x="369.309" y="-179.226" font-family="Inconsolata" font-size="14" text-anchor="middle">- norm=&apos;l1&apos;</text></g><g id="edge6" class="edge"><title>vect2-&gt;tfidf2</title><path fill="none" stroke="#000" d="M355.309,-127.164C357.129,-135.256 359.16,-144.288 361.098,-152.908"/><polygon fill="#000" stroke="#000" points="357.704 -153.768 363.312 -162.757 364.533 -152.233 357.704 -153.768"/></g><g id="node10" class="node"><title>tfidf3</title><ellipse cx="595.309" cy="-190.426" fill="none" stroke="#000" rx="90.519" ry="27.451"/><text x="595.309" y="-194.654" font-family="Inconsolata" font-size="14" text-anchor="middle">TfidfTransformer</text><text x="595.309" y="-179.226" font-family="Inconsolata" font-size="14" text-anchor="middle">- norm=&apos;l1&apos;</text></g><g id="edge10" class="edge"><title>vect3-&gt;tfidf3</title><path fill="none" stroke="#000" d="M590.409,-127.164C591.039,-135.168 591.741,-144.092 592.413,-152.627"/><polygon fill="#000" stroke="#000" points="588.936 -153.062 593.21 -162.757 595.915 -152.513 588.936 -153.062"/></g><g id="node11" class="node"><title>tfidf4</title><ellipse cx="809.309" cy="-190.426" fill="none" stroke="#000" rx="90.519" ry="27.451"/><text x="809.309" y="-194.654" font-family="Inconsolata" font-size="14" text-anchor="middle">TfidfTransformer</text><text x="809.309" y="-179.226" font-family="Inconsolata" font-size="14" text-anchor="middle">- norm=&apos;l2&apos;</text></g><g id="edge14" class="edge"><title>vect4-&gt;tfidf4</title><path fill="none" stroke="#000" d="M821.908,-127.164C820.271,-135.256 818.443,-144.288 816.698,-152.908"/><polygon fill="#000" stroke="#000" points="813.258 -152.261 814.705 -162.757 820.119 -153.65 813.258 -152.261"/></g><g id="node12" class="node"><title>tfidf5</title><ellipse cx="1038.31" cy="-190.426" fill="none" stroke="#000" rx="90.519" ry="27.451"/><text x="1038.31" y="-194.654" font-family="Inconsolata" font-size="14" text-anchor="middle">TfidfTransformer</text><text x="1038.31" y="-179.226" font-family="Inconsolata" font-size="14" text-anchor="middle">- norm=&apos;l2&apos;</text></g><g id="edge18" class="edge"><title>vect5-&gt;tfidf5</title><path fill="none" stroke="#000" d="M1057.91,-127.164C1055.31,-135.418 1052.4,-144.651 1049.64,-153.426"/><polygon fill="#000" stroke="#000" points="1046.27 -152.474 1046.61 -163.063 1052.95 -154.576 1046.27 -152.474"/></g><g id="node13" class="node"><title>tfidf6</title><ellipse cx="1297.31" cy="-190.426" fill="none" stroke="#000" rx="90.519" ry="27.451"/><text x="1297.31" y="-194.654" font-family="Inconsolata" font-size="14" text-anchor="middle">TfidfTransformer</text><text x="1297.31" y="-179.226" font-family="Inconsolata" font-size="14" text-anchor="middle">- norm=&apos;l2&apos;</text></g><g id="edge22" class="edge"><title>vect6-&gt;tfidf6</title><path fill="none" stroke="#000" d="M1302.91,-127.164C1302.19,-135.168 1301.39,-144.092 1300.62,-152.627"/><polygon fill="#000" stroke="#000" points="1297.12 -152.484 1299.71 -162.757 1304.09 -153.111 1297.12 -152.484"/></g><g id="node14" class="node"><title>sgd1</title><ellipse cx="178.309" cy="-281.377" fill="none" stroke="#000" rx="75.821" ry="27.451"/><text x="178.309" y="-285.605" font-family="Inconsolata" font-size="14" text-anchor="middle">SGDClassifier</text><text x="178.309" y="-270.177" font-family="Inconsolata" font-size="14" text-anchor="middle">- alpha=1e-3</text></g><g id="edge3" class="edge"><title>tfidf1-&gt;sgd1</title><path fill="none" stroke="#000" d="M158.71,-218.115C161.308,-226.369 164.214,-235.602 166.977,-244.377"/><polygon fill="#000" stroke="#000" points="163.669 -245.527 170.01 -254.014 170.346 -243.425 163.669 -245.527"/></g><g id="node15" class="node"><title>sgd2</title><ellipse cx="407.309" cy="-281.377" fill="none" stroke="#000" rx="75.821" ry="27.451"/><text x="407.309" y="-285.605" font-family="Inconsolata" font-size="14" text-anchor="middle">SGDClassifier</text><text x="407.309" y="-270.177" font-family="Inconsolata" font-size="14" text-anchor="middle">- alpha=1e-4</text></g><g id="edge7" class="edge"><title>tfidf2-&gt;sgd2</title><path fill="none" stroke="#000" d="M380.71,-218.115C384.274,-226.457 388.265,-235.8 392.05,-244.66"/><polygon fill="#000" stroke="#000" points="388.899 -246.193 396.046 -254.014 395.336 -243.443 388.899 -246.193"/></g><g id="node16" class="node"><title>sgd3</title><ellipse cx="606.309" cy="-281.377" fill="none" stroke="#000" rx="75.821" ry="27.451"/><text x="606.309" y="-285.605" font-family="Inconsolata" font-size="14" text-anchor="middle">SGDClassifier</text><text x="606.309" y="-270.177" font-family="Inconsolata" font-size="14" text-anchor="middle">- alpha=1e-5</text></g><g id="edge11" class="edge"><title>tfidf3-&gt;sgd3</title><path fill="none" stroke="#000" d="M598.609,-218.115C599.599,-226.118 600.702,-235.043 601.758,-243.578"/><polygon fill="#000" stroke="#000" points="598.31 -244.213 603.011 -253.708 605.257 -243.354 598.31 -244.213"/></g><g id="node17" class="node"><title>sgd4</title><ellipse cx="797.309" cy="-281.377" fill="none" stroke="#000" rx="75.821" ry="27.451"/><text x="797.309" y="-285.605" font-family="Inconsolata" font-size="14" text-anchor="middle">SGDClassifier</text><text x="797.309" y="-270.177" font-family="Inconsolata" font-size="14" text-anchor="middle">- alpha=1e-3</text></g><g id="edge15" class="edge"><title>tfidf4-&gt;sgd4</title><path fill="none" stroke="#000" d="M805.708,-218.115C804.628,-226.118 803.425,-235.043 802.273,-243.578"/><polygon fill="#000" stroke="#000" points="798.775 -243.33 800.907 -253.708 805.712 -244.266 798.775 -243.33"/></g><g id="node18" class="node"><title>sgd5</title><ellipse cx="1007.31" cy="-281.377" fill="none" stroke="#000" rx="75.821" ry="27.451"/><text x="1007.31" y="-285.605" font-family="Inconsolata" font-size="14" text-anchor="middle">SGDClassifier</text><text x="1007.31" y="-270.177" font-family="Inconsolata" font-size="14" text-anchor="middle">- alpha=1e-4</text></g><g id="edge19" class="edge"><title>tfidf5-&gt;sgd5</title><path fill="none" stroke="#000" d="M1029.01,-218.115C1026.13,-226.369 1022.91,-235.602 1019.85,-244.377"/><polygon fill="#000" stroke="#000" points="1016.48 -243.42 1016.5 -254.014 1023.09 -245.723 1016.48 -243.42"/></g><g id="node19" class="node"><title>sgd6</title><ellipse cx="1242.31" cy="-281.377" fill="none" stroke="#000" rx="75.821" ry="27.451"/><text x="1242.31" y="-285.605" font-family="Inconsolata" font-size="14" text-anchor="middle">SGDClassifier</text><text x="1242.31" y="-270.177" font-family="Inconsolata" font-size="14" text-anchor="middle">- alpha=1e-5</text></g><g id="edge23" class="edge"><title>tfidf6-&gt;sgd6</title><path fill="none" stroke="#000" d="M1281.1,-217.633C1275.68,-226.41 1269.54,-236.336 1263.78,-245.66"/><polygon fill="#000" stroke="#000" points="1260.68 -244.011 1258.4 -254.357 1266.63 -247.693 1260.68 -244.011"/></g><g id="node20" class="node"><title>best</title><ellipse cx="701.309" cy="-362.853" fill="none" stroke="#000" rx="111.9" ry="18"/><text x="701.309" y="-359.367" font-family="Inconsolata" font-size="14" text-anchor="middle">Choose Best Parameters</text></g><g id="edge4" class="edge"><title>sgd1-&gt;best</title><path fill="none" stroke="#000" d="M244.158,-295.098C268.655,-299.668 296.714,-304.712 322.309,-308.853 418.815,-324.465 529.592,-339.639 606.352,-349.722"/><polygon fill="#000" stroke="#000" points="606.111 -353.22 616.481 -351.049 607.021 -346.279 606.111 -353.22"/></g><g id="edge8" class="edge"><title>sgd2-&gt;best</title><path fill="none" stroke="#000" d="M466.804,-298.46C516.039,-311.77 585.866,-330.646 636.509,-344.336"/><polygon fill="#000" stroke="#000" points="635.804 -347.771 646.371 -347.002 637.63 -341.013 635.804 -347.771"/></g><g id="edge12" class="edge"><title>sgd3-&gt;best</title><path fill="none" stroke="#000" d="M635.587,-306.871C647.635,-316.951 661.528,-328.572 673.427,-338.527"/><polygon fill="#000" stroke="#000" points="671.384 -341.381 681.299 -345.113 675.875 -336.012 671.384 -341.381"/></g><g id="edge16" class="edge"><title>sgd4-&gt;best</title><path fill="none" stroke="#000" d="M767.722,-306.871C755.547,-316.951 741.509,-328.572 729.484,-338.527"/><polygon fill="#000" stroke="#000" points="726.999 -336.04 721.529 -345.113 731.463 -341.432 726.999 -336.04"/></g><g id="edge20" class="edge"><title>sgd5-&gt;best</title><path fill="none" stroke="#000" d="M946.853,-298.079C895.038,-311.536 820.542,-330.885 767.213,-344.736"/><polygon fill="#000" stroke="#000" points="766.311 -341.354 757.512 -347.255 768.07 -348.129 766.311 -341.354"/></g><g id="edge24" class="edge"><title>sgd6-&gt;best</title><path fill="none" stroke="#000" d="M1175.95,-294.679C1149.91,-299.351 1119.74,-304.574 1092.31,-308.853 991.863,-324.518 876.478,-339.832 797.229,-349.937"/><polygon fill="#000" stroke="#000" points="796.741 -346.471 787.263 -351.205 797.625 -353.415 796.741 -346.471"/></g></g></svg>